<svg xmlns="http://www.w3.org/2000/svg" xmlns:xlink="http://www.w3.org/1999/xlink" width="500" zoomAndPan="magnify" viewBox="0 0 375 374.999991" height="500" preserveAspectRatio="xMidYMid meet" version="1.0"><defs><g/></defs><rect x="-37.5" width="450" fill="#ffffff" y="-37.499999" height="449.999989" fill-opacity="1"/><rect x="-37.5" width="450" fill="#ffffff" y="-37.499999" height="449.999989" fill-opacity="1"/><g fill="#000000" fill-opacity="1"><g transform="translate(30.076923, 361.490046)"><g><path d="M 199.671875 -18.984375 C 198.296875 -19.648438 195.351562 -20.910156 190.84375 -22.765625 C 186.34375 -24.617188 181.945312 -26.75 177.65625 -29.15625 C 173.363281 -31.5625 170.613281 -33.632812 169.40625 -35.375 C 168.507812 -36.625 167.550781 -41.6875 166.53125 -50.5625 C 165.519531 -59.4375 164.457031 -70.414062 163.34375 -83.5 C 162.226562 -96.582031 161.140625 -110.132812 160.078125 -124.15625 C 159.015625 -138.175781 158.039062 -151.140625 157.15625 -163.046875 C 156.269531 -174.960938 155.550781 -184.195312 155 -190.75 C 147.90625 -174.851562 140.78125 -158.625 133.625 -142.0625 C 126.46875 -125.507812 119.65625 -109.507812 113.1875 -94.0625 C 106.726562 -78.613281 100.925781 -64.738281 95.78125 -52.4375 C 90.632812 -40.144531 86.410156 -30.164062 83.109375 -22.5 C 79.816406 -14.832031 77.6875 -10.429688 76.71875 -9.296875 C 75.039062 -7.304688 72.265625 -6.609375 68.390625 -7.203125 C 64.515625 -7.796875 60.523438 -8.972656 56.421875 -10.734375 C 52.316406 -12.492188 48.878906 -14.179688 46.109375 -15.796875 C 44.429688 -16.972656 42.613281 -18.203125 40.65625 -19.484375 C 38.707031 -20.765625 37.5 -24.15625 37.03125 -29.65625 C 36.800781 -32.269531 36.414062 -38.296875 35.875 -47.734375 C 35.332031 -57.171875 34.734375 -68.851562 34.078125 -82.78125 C 33.421875 -96.707031 32.675781 -111.671875 31.84375 -127.671875 C 31.007812 -143.679688 30.175781 -159.691406 29.34375 -175.703125 C 28.507812 -191.710938 27.757812 -206.675781 27.09375 -220.59375 C 26.4375 -234.507812 25.832031 -246.253906 25.28125 -255.828125 C 24.726562 -265.410156 24.328125 -271.640625 24.078125 -274.515625 L 23.515625 -281.203125 C 23.597656 -283.316406 24.257812 -284.816406 25.5 -285.703125 C 26.75 -286.597656 27.894531 -287.09375 28.9375 -287.1875 C 37.3125 -287.894531 43.050781 -287.0625 46.15625 -284.6875 C 49.257812 -282.320312 51.066406 -278.128906 51.578125 -272.109375 C 51.710938 -270.535156 52.144531 -263.914062 52.875 -252.25 C 53.601562 -240.582031 54.535156 -225.703125 55.671875 -207.609375 C 56.816406 -189.523438 57.984375 -169.65625 59.171875 -148 C 60.359375 -126.351562 61.617188 -104.644531 62.953125 -82.875 C 69.117188 -97.09375 75.953125 -112.757812 83.453125 -129.875 C 90.960938 -147 98.523438 -164.253906 106.140625 -181.640625 C 113.765625 -199.023438 120.894531 -215.1875 127.53125 -230.125 C 134.164062 -245.0625 139.570312 -257.382812 143.75 -267.09375 C 147.9375 -276.8125 150.347656 -282.617188 150.984375 -284.515625 C 152.398438 -289.390625 155.234375 -291.609375 159.484375 -291.171875 C 163.742188 -290.742188 168.304688 -289.09375 173.171875 -286.21875 C 178.035156 -283.34375 182.25 -280.273438 185.8125 -277.015625 C 189.382812 -273.753906 191.21875 -271.597656 191.3125 -270.546875 C 191.53125 -267.929688 190.507812 -264.414062 188.25 -260 C 185.988281 -255.59375 183.050781 -249.8125 179.4375 -242.65625 C 179.75 -238.988281 180.34375 -232.773438 181.21875 -224.015625 C 182.101562 -215.265625 183.164062 -205.144531 184.40625 -193.65625 C 185.65625 -182.164062 186.941406 -170.148438 188.265625 -157.609375 C 189.585938 -145.066406 190.867188 -133.046875 192.109375 -121.546875 C 193.359375 -110.046875 194.34375 -100.109375 195.0625 -91.734375 C 201.101562 -104.367188 207.640625 -118.109375 214.671875 -132.953125 C 221.710938 -147.796875 228.929688 -162.910156 236.328125 -178.296875 C 243.722656 -193.679688 250.832031 -208.453125 257.65625 -222.609375 C 264.488281 -236.773438 270.65625 -249.5 276.15625 -260.78125 C 281.664062 -272.0625 286.039062 -281.066406 289.28125 -287.796875 C 292.53125 -294.523438 294.273438 -298.035156 294.515625 -298.328125 C 295.453125 -299.734375 296.269531 -300.988281 296.96875 -302.09375 C 297.664062 -303.207031 298.535156 -303.804688 299.578125 -303.890625 C 301.410156 -304.046875 304.175781 -303.289062 307.875 -301.625 C 311.582031 -299.96875 315.390625 -297.851562 319.296875 -295.28125 C 323.210938 -292.71875 326.523438 -290.234375 329.234375 -287.828125 C 331.941406 -285.421875 333.363281 -283.4375 333.5 -281.875 C 333.769531 -278.726562 333.101562 -275.703125 331.5 -272.796875 C 329.90625 -269.898438 328.78125 -267.628906 328.125 -265.984375 C 325.644531 -261.035156 321.832031 -253.132812 316.6875 -242.28125 C 311.550781 -231.425781 305.515625 -218.71875 298.578125 -204.15625 C 291.648438 -189.59375 284.445312 -174.347656 276.96875 -158.421875 C 269.5 -142.492188 262.070312 -126.765625 254.6875 -111.234375 C 247.300781 -95.710938 240.59375 -81.566406 234.5625 -68.796875 C 228.539062 -56.035156 223.628906 -45.601562 219.828125 -37.5 C 216.035156 -29.394531 213.796875 -24.785156 213.109375 -23.671875 C 212.222656 -21.753906 210.78125 -20.117188 208.78125 -18.765625 C 206.78125 -17.410156 203.742188 -17.484375 199.671875 -18.984375 Z M 199.671875 -18.984375 "/></g></g></g><g fill="#b2dff2" fill-opacity="1"><g transform="translate(70.264078, 360.112564)"><g><path d="M 170.875 -14.203125 C 169.695312 -14.785156 167.191406 -15.894531 163.359375 -17.53125 C 159.535156 -19.164062 155.800781 -21.03125 152.15625 -23.125 C 148.519531 -25.21875 146.191406 -27.019531 145.171875 -28.53125 C 144.421875 -29.59375 143.648438 -33.921875 142.859375 -41.515625 C 142.078125 -49.117188 141.273438 -58.519531 140.453125 -69.71875 C 139.640625 -80.914062 138.847656 -92.507812 138.078125 -104.5 C 137.316406 -116.488281 136.617188 -127.582031 135.984375 -137.78125 C 135.359375 -147.988281 134.84375 -155.890625 134.4375 -161.484375 C 128.21875 -147.960938 121.960938 -134.160156 115.671875 -120.078125 C 109.378906 -105.992188 103.394531 -92.382812 97.71875 -79.25 C 92.039062 -66.125 86.9375 -54.328125 82.40625 -43.859375 C 77.882812 -33.390625 74.171875 -24.894531 71.265625 -18.375 C 68.367188 -11.863281 66.503906 -8.128906 65.671875 -7.171875 C 64.210938 -5.484375 61.832031 -4.914062 58.53125 -5.46875 C 55.226562 -6.019531 51.832031 -7.066406 48.34375 -8.609375 C 44.863281 -10.148438 41.941406 -11.625 39.578125 -13.03125 C 38.148438 -14.050781 36.609375 -15.117188 34.953125 -16.234375 C 33.296875 -17.347656 32.296875 -20.253906 31.953125 -24.953125 C 31.785156 -27.203125 31.519531 -32.363281 31.15625 -40.4375 C 30.789062 -48.507812 30.394531 -58.5 29.96875 -70.40625 C 29.550781 -82.3125 29.066406 -95.109375 28.515625 -108.796875 C 27.960938 -122.492188 27.410156 -136.1875 26.859375 -149.875 C 26.304688 -163.570312 25.816406 -176.375 25.390625 -188.28125 C 24.972656 -200.195312 24.578125 -210.25 24.203125 -218.4375 C 23.835938 -226.625 23.5625 -231.945312 23.375 -234.40625 L 22.96875 -240.125 C 23.0625 -241.925781 23.640625 -243.207031 24.703125 -243.96875 C 25.773438 -244.726562 26.757812 -245.140625 27.65625 -245.203125 C 34.820312 -245.734375 39.71875 -244.96875 42.34375 -242.90625 C 44.96875 -240.84375 46.46875 -237.234375 46.84375 -232.078125 C 46.945312 -230.722656 47.25 -225.054688 47.75 -215.078125 C 48.257812 -205.097656 48.910156 -192.367188 49.703125 -176.890625 C 50.503906 -161.410156 51.300781 -144.414062 52.09375 -125.90625 C 52.882812 -107.394531 53.738281 -88.820312 54.65625 -70.1875 C 60.0625 -82.289062 66.054688 -95.617188 72.640625 -110.171875 C 79.234375 -124.734375 85.875 -139.40625 92.5625 -154.1875 C 99.257812 -168.976562 105.519531 -182.722656 111.34375 -195.421875 C 117.164062 -208.117188 121.914062 -218.597656 125.59375 -226.859375 C 129.28125 -235.117188 131.394531 -240.054688 131.9375 -241.671875 C 133.207031 -245.816406 135.660156 -247.6875 139.296875 -247.28125 C 142.929688 -246.875 146.804688 -245.410156 150.921875 -242.890625 C 155.046875 -240.378906 158.617188 -237.710938 161.640625 -234.890625 C 164.660156 -232.078125 166.207031 -230.222656 166.28125 -229.328125 C 166.4375 -227.085938 165.523438 -224.09375 163.546875 -220.34375 C 161.578125 -216.59375 159.015625 -211.679688 155.859375 -205.609375 C 156.085938 -202.472656 156.53125 -197.15625 157.1875 -189.65625 C 157.851562 -182.164062 158.65625 -173.503906 159.59375 -163.671875 C 160.539062 -153.835938 161.519531 -143.550781 162.53125 -132.8125 C 163.539062 -122.070312 164.515625 -111.78125 165.453125 -101.9375 C 166.398438 -92.101562 167.132812 -83.601562 167.65625 -76.4375 C 172.957031 -87.175781 178.691406 -98.847656 184.859375 -111.453125 C 191.023438 -124.066406 197.34375 -136.914062 203.8125 -150 C 210.289062 -163.082031 216.523438 -175.640625 222.515625 -187.671875 C 228.503906 -199.710938 233.90625 -210.523438 238.71875 -220.109375 C 243.539062 -229.691406 247.375 -237.34375 250.21875 -243.0625 C 253.0625 -248.789062 254.582031 -251.773438 254.78125 -252.015625 C 255.601562 -253.203125 256.316406 -254.265625 256.921875 -255.203125 C 257.535156 -256.148438 258.289062 -256.65625 259.1875 -256.71875 C 260.75 -256.832031 263.101562 -256.160156 266.25 -254.703125 C 269.394531 -253.242188 272.625 -251.398438 275.9375 -249.171875 C 279.257812 -246.941406 282.0625 -244.785156 284.34375 -242.703125 C 286.632812 -240.617188 287.832031 -238.90625 287.9375 -237.5625 C 288.132812 -234.875 287.535156 -232.296875 286.140625 -229.828125 C 284.753906 -227.359375 283.769531 -225.425781 283.1875 -224.03125 C 281.03125 -219.820312 277.695312 -213.101562 273.1875 -203.875 C 268.675781 -194.65625 263.382812 -183.859375 257.3125 -171.484375 C 251.238281 -159.109375 244.925781 -146.148438 238.375 -132.609375 C 231.820312 -119.066406 225.3125 -105.695312 218.84375 -92.5 C 212.375 -79.3125 206.5 -67.289062 201.21875 -56.4375 C 195.9375 -45.582031 191.632812 -36.707031 188.3125 -29.8125 C 184.988281 -22.925781 183.023438 -19.015625 182.421875 -18.078125 C 181.628906 -16.441406 180.375 -15.050781 178.65625 -13.90625 C 176.9375 -12.769531 174.34375 -12.867188 170.875 -14.203125 Z M 170.875 -14.203125 "/></g></g></g></svg>